<svg width="410" height="410" viewBox="0 0 410 410" fill="none" xmlns="http://www.w3.org/2000/svg">
<g clip-path="url(#clip0)">
<path d="M151.68 110.19L152.44 89.25L117.36 113.54L108.09 91.93L93.46 94.67L86.23 106.95L90.26 105.2L95.07 98.23L101.33 96.61L93.77 107.45L95.49 116.7L105.57 109.56L107.71 103.05L111.03 118.29C110.45 120.63 109.96 122.84 109.54 124.95C109.33 125.98 109.14 126.99 108.97 127.96C108.97 127.97 108.97 127.97 108.97 127.98C108.79 129 108.63 129.99 108.49 130.96C108.47 131.13 108.44 131.29 108.42 131.45C108.37 131.77 108.33 132.08 108.29 132.39C108.28 132.45 108.28 132.51 108.27 132.57C108.22 132.98 108.16 133.39 108.12 133.79C108.11 133.87 108.1 133.94 108.09 134.02C108.05 134.4 108 134.78 107.97 135.15C107.96 135.26 107.95 135.36 107.94 135.46C107.91 135.8 107.87 136.13 107.85 136.46C107.83 136.64 107.82 136.82 107.81 137.01C107.79 137.25 107.77 137.5 107.75 137.74C107.74 137.92 107.73 138.09 107.72 138.27C107.71 138.51 107.69 138.75 107.68 138.98C107.67 139.15 107.67 139.32 107.66 139.49C107.65 139.72 107.64 139.96 107.63 140.18C107.63 140.29 107.63 140.39 107.62 140.49C107.61 140.78 107.6 141.06 107.6 141.34C107.6 141.48 107.6 141.61 107.6 141.75C107.6 141.99 107.6 142.24 107.6 142.48C107.6 142.75 107.61 143 107.61 143.26C107.61 143.36 107.61 143.47 107.62 143.57C107.63 143.85 107.64 144.13 107.65 144.4C107.65 144.48 107.66 144.56 107.66 144.63C107.69 145.31 107.74 145.98 107.8 146.62C107.8 146.63 107.8 146.65 107.8 146.67C107.82 146.91 107.85 147.14 107.87 147.37C107.88 147.46 107.89 147.55 107.9 147.64C107.93 147.91 107.97 148.18 108.01 148.44C108.02 148.49 108.02 148.53 108.03 148.58C108.07 148.87 108.12 149.16 108.16 149.44C108.16 149.46 108.17 149.48 108.17 149.49C108.52 151.59 109.03 153.45 109.65 155.14C109.81 155.57 109.98 155.99 110.15 156.4C110.17 156.45 110.19 156.5 110.21 156.54C110.4 156.98 110.6 157.4 110.8 157.82C110.81 157.84 110.81 157.85 110.82 157.87C112.64 161.5 115.05 164.24 117.61 166.79L117.62 166.8C119.13 168.3 120.69 169.73 122.2 171.23C123.11 172.13 124 173.06 124.86 174.05L142.8 206.51L151.64 185.5L167.92 170.7L151.68 110.19ZM103.81 105.57L101.71 109.24L97.36 110.18L99.27 102.84L104.56 99.44L103.81 105.57Z" fill="#E6E7E8"/>
<path d="M409.82 204.91C409.82 318.08 318.08 409.82 204.91 409.82C91.74 409.82 0 318.08 0 204.91C0 91.74 91.74 0 204.91 0C318.08 0 409.82 91.74 409.82 204.91ZM204.91 26.44C106.34 26.44 26.44 106.34 26.44 204.91C26.44 303.48 106.34 383.38 204.91 383.38C303.48 383.38 383.38 303.48 383.38 204.91C383.38 106.34 303.48 26.44 204.91 26.44Z" fill="white"/>
<path d="M274.86 96.4L265.06 92.54L199.26 81.02L217 104.62L236.52 164.54L249.28 206.53L277.83 154.77L301.18 84.32L274.86 96.4Z" fill="#E6E7E8"/>
<path d="M322.31 223.94C321.43 223.07 320.37 222.64 319.11 222.64C317.85 222.64 316.78 223.07 315.91 223.94C315.03 224.8 314.58 225.84 314.58 227.07C314.58 228.29 315.02 229.34 315.91 230.2C316.79 231.07 317.86 231.5 319.11 231.5C320.36 231.5 321.42 231.07 322.31 230.2C323.19 229.33 323.64 228.29 323.64 227.07C323.64 225.84 323.2 224.8 322.31 223.94ZM321.65 229.54C320.95 230.23 320.11 230.57 319.12 230.57C318.13 230.57 317.29 230.23 316.59 229.54C315.89 228.86 315.54 228.03 315.54 227.07C315.54 226.1 315.89 225.27 316.59 224.59C317.29 223.9 318.14 223.56 319.12 223.56C320.11 223.56 320.96 223.9 321.65 224.59C322.35 225.27 322.7 226.1 322.7 227.07C322.69 228.03 322.35 228.86 321.65 229.54Z" fill="white"/>
<path d="M320.56 227.22C320.77 226.93 320.87 226.64 320.87 226.32V226.18C320.87 225.77 320.71 225.4 320.4 225.08C320.06 224.76 319.64 224.6 319.13 224.6H317.55V229.35H318.52V227.49L319.77 229.35H320.95L319.86 227.7C320.18 227.58 320.41 227.42 320.56 227.22ZM319.67 226.7C319.54 226.83 319.39 226.89 319.22 226.89L318.53 226.88V225.54H319.08C319.35 225.54 319.55 225.6 319.67 225.73C319.8 225.86 319.86 226.01 319.86 226.2C319.87 226.41 319.8 226.58 319.67 226.7Z" fill="white"/>
<path d="M111.9 243.13L129.59 222.09V258.35H122.32V243.67L111.89 255.02L101.44 243.67V258.35H94.17V222.09L111.9 243.13Z" fill="white"/>
<path d="M158.18 222.83V229.93H143.65V237.07H153.78V244.17H143.65V251.31H158.18V258.39H136.38V222.83H158.18V222.83Z" fill="white"/>
<path d="M172.23 222.92L178.92 233.45L185.63 222.92H194.68L183.44 240.61L194.68 258.34H185.63L178.92 247.77L172.23 258.34L163.18 258.32L174.37 240.61L163.18 222.92H172.23Z" fill="white"/>
<path d="M199.08 222.92H206.35V258.34H199.08V222.92Z" fill="white"/>
<path d="M230.11 258.59C225.06 258.58 220.74 256.83 217.17 253.36C213.58 249.84 211.79 245.61 211.79 240.66C211.79 235.72 213.58 231.48 217.17 227.94C220.77 224.41 225.09 222.64 230.11 222.64L230.09 222.73C235.67 222.73 240.11 225.16 243.1 227.98L237.92 233.06C235.74 230.95 233.14 229.9 230.14 229.9C227.09 229.9 224.5 230.95 222.38 233.06C220.23 235.2 219.15 237.74 219.15 240.69C219.15 243.66 220.23 246.21 222.38 248.32C224.52 250.42 227.1 251.46 230.14 251.46C233.19 251.46 235.79 250.41 237.94 248.3L243.12 253.38C240.15 256.24 235.75 258.59 230.11 258.59Z" fill="white"/>
<path d="M261.12 222.2L277.63 258.35H269.76L267.32 252.97H254.94L252.5 258.35H244.65L261.12 222.2ZM264.43 246.68L261.13 239.19L257.79 246.68H264.43Z" fill="white"/>
<path d="M303.91 242.5V222.83H311.2V259.07L289.4 238.72V258.39H282.13V222.17L303.91 242.5Z" fill="white"/>
<path d="M94.17 305.91V264.41H116.9C123.19 264.41 128.54 266.43 132.96 270.48C137.43 274.55 139.67 279.46 139.67 285.2C139.67 290.99 137.43 295.87 132.96 299.84C128.49 303.89 123.14 305.91 116.9 305.91H107.18V323.72H94.17V305.91ZM116.9 276.22H107.18V294.1L116.9 294.14C122.22 294.14 126.66 290.05 126.66 285.2C126.66 280.35 122.2 276.22 116.9 276.22Z" fill="white"/>
<path d="M196.92 272.73C202.91 278.6 205.91 285.66 205.91 293.89C205.91 302.15 202.91 309.19 196.92 315.01C190.95 320.81 183.77 323.71 175.37 323.71C166.94 323.69 159.76 320.79 153.82 315.01C147.85 309.16 144.87 302.12 144.87 293.89C144.87 285.68 147.85 278.63 153.82 272.73C159.81 266.86 167 263.92 175.37 263.92C183.74 263.93 190.93 266.86 196.92 272.73ZM162.43 281.14C158.85 284.7 157.06 288.92 157.06 293.82C157.06 298.77 158.85 302.99 162.43 306.5C165.99 309.98 170.3 311.73 175.37 311.73C180.37 311.73 184.67 309.99 188.27 306.5C191.87 303.02 193.68 298.79 193.68 293.82C193.68 288.9 191.88 284.67 188.27 281.14C184.69 277.63 180.39 275.88 175.37 275.88C170.27 275.88 165.96 277.63 162.43 281.14Z" fill="white"/>
<path d="M212.98 264.41H234.1C241.31 264.41 247.13 266.9 251.04 270.44C254.98 274.05 257.3 277.34 257.3 283.91V285.46C257.3 289.46 255.93 293.22 253.2 296.76C250.93 299.68 249.13 300.92 245.45 302.24L260.51 323.73H244.61L226.02 299.65V323.73H213.01L212.98 264.41ZM243.9 284.17C243.9 282.04 243.04 280.16 241.33 278.54C239.64 277.06 236.44 276.22 233.3 276.22H225.99V292.38H231.01L235.35 292.42C240.09 292.41 243.9 288.63 243.9 284.17Z" fill="white"/>
<path d="M279.73 264.41V290.64L296.72 264.41H312.1L292.48 294.54L315.26 323.72H299.06L279.73 298.85V323.72H266.45V264.41H279.73Z" fill="white"/>
<path d="M107.83 136.46C107.86 136.13 107.89 135.8 107.92 135.46C107.89 135.8 107.86 136.13 107.83 136.46Z" fill="white"/>
<path d="M108.16 149.51C108.16 149.49 108.15 149.47 108.15 149.46C108.15 149.47 108.15 149.49 108.16 149.51Z" fill="white"/>
<path d="M107.73 137.74C107.75 137.5 107.77 137.25 107.79 137.01C107.77 137.25 107.75 137.5 107.73 137.74Z" fill="white"/>
<path d="M107.58 141.35C107.58 141.07 107.59 140.78 107.6 140.5C107.6 140.78 107.59 141.07 107.58 141.35Z" fill="white"/>
<path d="M108.01 148.6C108 148.56 108 148.51 107.99 148.46C108 148.5 108.01 148.55 108.01 148.6Z" fill="white"/>
<path d="M107.64 144.65C107.64 144.57 107.63 144.49 107.63 144.42C107.64 144.49 107.64 144.57 107.64 144.65Z" fill="white"/>
<path d="M108.28 132.4C108.32 132.09 108.37 131.77 108.41 131.46C108.37 131.77 108.32 132.09 108.28 132.4Z" fill="white"/>
<path d="M107.66 138.98C107.67 138.75 107.69 138.51 107.7 138.27C107.69 138.51 107.67 138.75 107.66 138.98Z" fill="white"/>
<path d="M107.61 140.18C107.62 139.95 107.63 139.72 107.64 139.49C107.63 139.72 107.62 139.96 107.61 140.18Z" fill="white"/>
<path d="M122.2 171.25C123.11 172.15 124 173.08 124.86 174.07C124.01 173.09 123.11 172.16 122.2 171.25Z" fill="white"/>
<path d="M107.89 147.65C107.88 147.56 107.87 147.47 107.86 147.38C107.87 147.47 107.88 147.57 107.89 147.65Z" fill="white"/>
<path d="M107.95 135.15C107.99 134.78 108.03 134.4 108.07 134.02C108.04 134.4 107.99 134.78 107.95 135.15Z" fill="white"/>
<path d="M117.62 166.82L117.61 166.81C117.62 166.81 117.62 166.81 117.62 166.82Z" fill="white"/>
<path d="M107.6 143.58C107.6 143.48 107.6 143.37 107.59 143.27C107.6 143.37 107.6 143.48 107.6 143.58Z" fill="white"/>
<path d="M110.2 156.57C110.18 156.52 110.16 156.47 110.14 156.43C110.16 156.47 110.18 156.52 110.2 156.57Z" fill="white"/>
<path d="M110.82 157.89C110.81 157.87 110.81 157.86 110.8 157.84C110.8 157.86 110.81 157.87 110.82 157.89Z" fill="white"/>
<path d="M108.1 133.79C108.15 133.39 108.2 132.98 108.25 132.57C108.2 132.98 108.15 133.39 108.1 133.79Z" fill="white"/>
<path d="M108.48 130.96C108.62 129.99 108.78 129 108.96 127.98C108.79 129 108.62 130 108.48 130.96Z" fill="white"/>
<path d="M117.62 166.82C119.13 168.32 120.69 169.75 122.2 171.25C120.69 169.75 119.13 168.32 117.62 166.82Z" fill="white"/>
<path d="M108.41 131.45C108.43 131.29 108.45 131.12 108.48 130.96C108.46 131.13 108.44 131.29 108.41 131.45Z" fill="white"/>
<path d="M108.26 132.57C108.27 132.51 108.27 132.45 108.28 132.39C108.27 132.46 108.27 132.51 108.26 132.57Z" fill="white"/>
<path d="M117.61 166.81C115.05 164.27 112.64 161.53 110.82 157.89C112.64 161.52 115.05 164.26 117.61 166.81Z" fill="white"/>
<path d="M108.15 149.45C108.1 149.17 108.06 148.88 108.02 148.59C108.06 148.89 108.1 149.17 108.15 149.45Z" fill="white"/>
<path d="M108 148.46C107.96 148.19 107.93 147.93 107.89 147.66C107.92 147.93 107.96 148.19 108 148.46Z" fill="white"/>
<path d="M108.08 134.02C108.09 133.94 108.1 133.87 108.11 133.79C108.09 133.87 108.09 133.94 108.08 134.02Z" fill="white"/>
<path d="M107.63 144.41C107.62 144.14 107.61 143.86 107.6 143.58C107.61 143.86 107.62 144.14 107.63 144.41Z" fill="white"/>
<path d="M107.78 146.64C107.72 146 107.67 145.33 107.64 144.65C107.68 145.33 107.72 145.99 107.78 146.64Z" fill="white"/>
<path d="M109.64 155.16C109.02 153.47 108.51 151.61 108.16 149.51C108.51 151.6 109.01 153.47 109.64 155.16Z" fill="white"/>
<path d="M110.8 157.84C110.59 157.43 110.4 157 110.21 156.56C110.39 157 110.59 157.43 110.8 157.84Z" fill="white"/>
<path d="M110.14 156.42C109.96 156.01 109.8 155.59 109.64 155.16C109.8 155.59 109.97 156.01 110.14 156.42Z" fill="white"/>
<path d="M107.86 147.39C107.83 147.16 107.81 146.92 107.79 146.69C107.81 146.92 107.84 147.15 107.86 147.39Z" fill="white"/>
<path d="M107.64 139.49C107.65 139.32 107.65 139.15 107.66 138.98C107.65 139.15 107.65 139.32 107.64 139.49Z" fill="white"/>
<path d="M107.6 143.27C107.59 143.01 107.59 142.75 107.59 142.49C107.58 142.75 107.59 143.01 107.6 143.27Z" fill="white"/>
<path d="M107.7 138.27C107.71 138.09 107.72 137.92 107.73 137.74C107.72 137.92 107.71 138.09 107.7 138.27Z" fill="white"/>
<path d="M107.93 135.46C107.94 135.35 107.95 135.25 107.96 135.15C107.94 135.25 107.94 135.36 107.93 135.46Z" fill="white"/>
<path d="M107.79 137.01C107.8 136.83 107.82 136.65 107.83 136.46C107.82 136.65 107.8 136.83 107.79 137.01Z" fill="white"/>
<path d="M107.6 140.5C107.6 140.4 107.6 140.29 107.61 140.19C107.61 140.29 107.61 140.39 107.6 140.5Z" fill="white"/>
<path d="M151.68 110.19L167.92 170.73C218.58 179.74 236.52 164.54 236.52 164.54L217 104.62C189.14 113.7 183.01 110.18 151.68 110.19Z" fill="white"/>
<path d="M142.8 206.53H166.43L151.64 185.53L142.8 206.53Z" fill="#F1F2F2"/>
<path d="M151.68 110.19C124.91 110.19 109.7 124.67 109.57 124.8C109.35 125.89 109.15 126.94 108.97 127.97C108.97 127.98 108.97 127.98 108.97 127.99C108.79 129.01 108.63 130 108.49 130.97C108.47 131.14 108.44 131.3 108.42 131.46C108.37 131.78 108.33 132.09 108.29 132.4C108.28 132.46 108.28 132.52 108.27 132.58C108.22 132.99 108.16 133.4 108.12 133.8C108.11 133.88 108.1 133.95 108.09 134.03C108.05 134.41 108 134.79 107.97 135.16C107.96 135.27 107.95 135.37 107.94 135.47C107.91 135.81 107.87 136.14 107.85 136.47C107.83 136.65 107.82 136.83 107.81 137.02C107.79 137.26 107.77 137.51 107.75 137.75C107.74 137.93 107.73 138.1 107.72 138.28C107.71 138.52 107.69 138.76 107.68 138.99C107.67 139.16 107.67 139.33 107.66 139.5C107.65 139.73 107.64 139.97 107.63 140.19C107.63 140.3 107.63 140.4 107.62 140.5C107.61 140.79 107.6 141.07 107.6 141.35C107.6 141.49 107.6 141.62 107.6 141.76C107.6 142 107.6 142.25 107.6 142.49C107.6 142.76 107.61 143.01 107.61 143.27C107.61 143.37 107.61 143.48 107.62 143.58C107.63 143.86 107.64 144.14 107.65 144.41C107.65 144.49 107.66 144.57 107.66 144.64C107.69 145.32 107.74 145.99 107.8 146.63C107.8 146.64 107.8 146.66 107.8 146.68C107.82 146.92 107.85 147.15 107.87 147.38C107.88 147.47 107.89 147.56 107.9 147.65C107.93 147.92 107.97 148.19 108.01 148.45C108.02 148.5 108.02 148.54 108.03 148.59C108.07 148.88 108.12 149.17 108.16 149.45C108.16 149.47 108.17 149.49 108.17 149.5C108.52 151.6 109.03 153.46 109.65 155.15C109.81 155.58 109.98 156 110.15 156.41C110.17 156.46 110.19 156.51 110.21 156.55C110.4 156.99 110.6 157.41 110.8 157.83C110.81 157.85 110.81 157.86 110.82 157.88C112.64 161.51 115.05 164.25 117.61 166.8L117.62 166.81C119.13 168.31 120.69 169.74 122.2 171.24C123.11 172.14 124 173.07 124.86 174.06L129.56 182.57C140.45 176.17 165.35 170.89 167.92 170.72L151.68 110.19Z" fill="#F1F2F2"/>
<path d="M281.71 93.26V72.11L265.06 92.54L274.86 96.4L281.71 93.26Z" fill="#F1F2F2"/>
<path d="M326.72 115.89L295.31 102.03L277.83 154.77L307.57 146.1L328.84 134.9L331.6 115.3L326.72 115.89Z" fill="#F1F2F2"/>
<path d="M249.28 206.53H273.64L259.85 187.37L249.28 206.53Z" fill="#F1F2F2"/>
<path d="M217 104.62L236.52 164.54L236.56 164.67C248.26 155.36 265.96 151.55 277.83 154.78L275.03 99.83C275.03 99.82 245.2 93.37 217 104.62Z" fill="#F1F2F2"/>
<path d="M152.44 89.25L151.68 110.19C183.01 110.19 189.14 113.71 217 104.62L199.25 81.02L152.44 89.25Z" fill="#F1F2F2"/>
</g>
<defs>
<clipPath id="clip0">
<rect width="409.82" height="409.82" fill="black"/>
</clipPath>
</defs>
</svg>
